# xmcd CD database file
# Copyright (C) 1993-1998 Ti Kan
#
# Track frame offsets:
#	150
#	16030
#	35565
#	53477
#	67650
#	83932
#	100885
#	118082
#	136202
#	152565
#	168860
#	186522
#	199580
#	211970
#
# Disc length: 3051 seconds
#
# Revision: 1
# Processed by: cddbd v1.4b41PL1 Copyright (c) Steve Scherf et al.
# Submitted via: CDValet v3.31 - Copyright (c) 1997 Greg Leichner
#
DISCID=af0be90e
DTITLE=Hot Hits Country Jukebox Edition - Country Hot Hits #33
DYEAR=1900
DGENRE=
TTITLE0=Walking Away A Winner
TTITLE1=Foolish Pride
TTITLE2=Where Do I Fit In The Picture
TTITLE3=Cowboys Don't Cry
TTITLE4=I Wish I Could Have Been There
TTITLE5=Whole Lotta Love On The Line
TTITLE6=But I Will
TTITLE7=Little Rock
TTITLE8=Every Once In A While
TTITLE9=By The Way She's Lookin
TTITLE10=The Cheap Seats
TTITLE11=Lifestyles Of The Not So Rich and Famous
TTITLE12=Wink
TTITLE13=Daddy Never Was The Cadillac Kind
EXTD=
EXTT0=Mattea - Kathy
EXTT1=Tritt - Travis
EXTT2=Walker - Clay
EXTT3=Norwood - Daron
EXTT4=Anderson - John
EXTT5=Tippin - Aaron
EXTT6=Hill - Faith
EXTT7=Raye - Collin
EXTT8=Blackhawk
EXTT9=Hunter - Jesse
EXTT10=Alabama
EXTT11=Byrd - Tracy
EXTT12=McCoy - Neal
EXTT13=Confederate Railroad
PLAYORDER=
